<?xml version="1.0" encoding="UTF-8" standalone="no"?>
<svg
   viewBox="0 0 512 512"
   version="1.1"
   id="svg4"
   sodipodi:docname="circle-check-regular.svg"
   inkscape:version="1.1.1 (3bf5ae0d25, 2021-09-20)"
   xmlns:inkscape="http://www.inkscape.org/namespaces/inkscape"
   xmlns:sodipodi="http://sodipodi.sourceforge.net/DTD/sodipodi-0.dtd"
   xmlns="http://www.w3.org/2000/svg"
   xmlns:svg="http://www.w3.org/2000/svg">
  <defs
     id="defs8" />
  <sodipodi:namedview
     id="namedview6"
     pagecolor="#ffffff"
     bordercolor="#666666"
     borderopacity="1.0"
     inkscape:pageshadow="2"
     inkscape:pageopacity="0.0"
     inkscape:pagecheckerboard="0"
     showgrid="false"
     inkscape:zoom="1.5039062"
     inkscape:cx="255.66753"
     inkscape:cy="253.00779"
     inkscape:window-width="1920"
     inkscape:window-height="974"
     inkscape:window-x="-11"
     inkscape:window-y="-11"
     inkscape:window-maximized="1"
     inkscape:current-layer="svg4" />
  <!--! Font Awesome Pro 6.1.1 by @fontawesome - https://fontawesome.com License - https://fontawesome.com/license (Commercial License) Copyright 2022 Fonticons, Inc. -->
  <path
     d="M243.8 339.8C232.9 350.7 215.1 350.7 204.2 339.8L140.2 275.8C129.3 264.9 129.3 247.1 140.2 236.2C151.1 225.3 168.9 225.3 179.8 236.2L224 280.4L332.2 172.2C343.1 161.3 360.9 161.3 371.8 172.2C382.7 183.1 382.7 200.9 371.8 211.8L243.8 339.8zM512 256C512 397.4 397.4 512 256 512C114.6 512 0 397.4 0 256C0 114.6 114.6 0 256 0C397.4 0 512 114.6 512 256zM256 48C141.1 48 48 141.1 48 256C48 370.9 141.1 464 256 464C370.9 464 464 370.9 464 256C464 141.1 370.9 48 256 48z"
     id="path2" />
  <path
     style="fill:#00aa00;stroke-width:0.664935"
     d="M 240.04156,511.2538 C 215.39747,509.27896 194.59652,505.08664 173.16895,497.77596 86.393344,468.16977 21.154799,392.6889 4.7174768,302.87792 1.5170753,285.39143 0.70814434,275.93324 0.70814434,256 c 0,-19.93324 0.80893096,-29.39143 4.00933246,-46.87792 C 18.935093,131.43923 70.272818,63.198994 141.27191,27.608234 168.5026,13.957908 195.9616,5.7912234 227.74026,1.8913539 c 13.47541,-1.6536996 43.04407,-1.6536996 56.51948,0 38.13139,4.6794739 71.6438,16.0103741 103.06494,34.8473441 62.66048,37.564956 106.92514,101.174742 119.95785,172.383382 3.20039,17.48649 4.00933,26.94468 4.00933,46.87792 0,19.93652 -0.80975,29.40157 -4.01045,46.87792 -14.01883,76.54527 -64.07898,143.97979 -133.59762,179.96536 -28.07086,14.53058 -56.67038,23.28295 -88.75911,27.16314 -8.5666,1.03589 -37.49099,1.83974 -44.88312,1.24738 z m 38.56623,-48.12797 c 55.56357,-6.3267 104.56197,-33.14532 139.70582,-76.46609 34.41062,-42.41693 50.83664,-98.68289 44.77984,-153.38963 C 456.65686,175.13289 425.91403,121.93561 378.99136,87.740137 326.50446,49.489663 259.41861,37.906226 196.66036,56.257793 148.16234,70.439431 105.01311,103.50919 78.497333,146.81845 51.763517,190.48384 42.153555,241.14503 50.883922,292.38908 c 8.154073,47.8614 34.790448,93.5288 72.461528,124.23347 34.33728,27.98737 72.8142,43.49453 117.02858,47.16543 8.212,0.6818 29.69875,0.30968 38.23376,-0.66215 z"
     id="path195" />
  <path
     style="fill:#00aa00;stroke-width:0.664935"
     d="m 215.14738,346.08012 c -1.98894,-0.71525 -4.83154,-2.08391 -6.31688,-3.04144 -1.48535,-0.95754 -18.14352,-17.1927 -37.01815,-36.07814 -31.71686,-31.73501 -34.48833,-34.68883 -36.57143,-38.97773 -2.14487,-4.41606 -2.25391,-4.99508 -2.25391,-11.96883 0,-6.57825 0.18436,-7.72169 1.80129,-11.1724 3.49746,-7.46393 11.39431,-13.92739 19.22041,-15.73163 6.90391,-1.59163 14.85991,-0.13303 21.03421,3.85628 1.73782,1.12284 13.47995,12.37394 26.09361,25.00246 l 22.93393,22.96095 56.19334,-56.07466 c 64.72485,-64.58813 59.16982,-59.95108 71.81932,-59.95108 6.47234,0 7.30889,0.15493 11.46398,2.12322 5.80118,2.74805 10.59461,7.54149 13.34266,13.34267 1.98735,4.19533 2.12323,4.95023 2.12323,11.79644 0,12.42632 5.95196,5.50018 -70.73349,82.31081 -36.79944,36.85951 -68.25456,67.87725 -69.90028,68.92832 -6.37986,4.07463 -16.19638,5.20484 -23.23184,2.67476 z"
     id="path234" />
</svg>
